<svg width="184" height="48" viewBox="0 0 184 48" fill="none" xmlns="http://www.w3.org/2000/svg">
<mask id="path-1-inside-1_708_940" fill="white">
<path fill-rule="evenodd" clip-rule="evenodd" d="M3.2 40C2.0799 40 1.51984 40 1.09202 39.782C0.715695 39.5903 0.409734 39.2843 0.217987 38.908C0 38.4802 0 37.9201 0 36.8V11.2C0 10.0799 0 9.51984 0.217987 9.09202C0.409734 8.71569 0.715695 8.40973 1.09202 8.21799C1.51984 8 2.07989 8 3.2 8H4.81562C5.93573 8 6.49578 8 6.92361 7.78201C7.29993 7.59027 7.60589 7.28431 7.79764 6.90798C8.01562 6.48016 8.01562 5.9201 8.01562 4.8V3.2C8.01562 2.0799 8.01562 1.51984 8.23361 1.09202C8.42536 0.715695 8.73132 0.409734 9.10764 0.217987C9.53547 0 10.0955 0 11.2156 0H172.816C173.936 0 174.496 0 174.924 0.217987C175.3 0.409734 175.606 0.715695 175.798 1.09202C176.016 1.51984 176.016 2.0799 176.016 3.2V4.8C176.016 5.9201 176.016 6.48016 176.234 6.90798C176.425 7.28431 176.731 7.59027 177.108 7.78201C177.535 8 178.096 8 179.216 8H180.8C181.92 8 182.48 8 182.908 8.21799C183.284 8.40973 183.59 8.71569 183.782 9.09202C184 9.51984 184 10.0799 184 11.2V36.8C184 37.9201 184 38.4802 183.782 38.908C183.59 39.2843 183.284 39.5903 182.908 39.782C182.48 40 181.92 40 180.8 40H179.216C178.096 40 177.535 40 177.108 40.218C176.731 40.4097 176.425 40.7157 176.234 41.092C176.016 41.5198 176.016 42.0799 176.016 43.2V44.8C176.016 45.9201 176.016 46.4802 175.798 46.908C175.606 47.2843 175.3 47.5903 174.924 47.782C174.496 48 173.936 48 172.816 48H11.2156C10.0955 48 9.53547 48 9.10764 47.782C8.73132 47.5903 8.42536 47.2843 8.23361 46.908C8.01562 46.4802 8.01562 45.9201 8.01562 44.8V43.2C8.01562 42.0799 8.01562 41.5198 7.79764 41.092C7.60589 40.7157 7.29993 40.4097 6.92361 40.218C6.49578 40 5.93573 40 4.81563 40H3.2Z"/>
</mask>
<path d="M7.79764 41.092L6.90663 41.546L7.79764 41.092ZM6.92361 40.218L6.46962 41.109L6.92361 40.218ZM9.10764 47.782L9.56163 46.891L9.10764 47.782ZM8.23361 46.908L7.34261 47.362L8.23361 46.908ZM175.798 46.908L176.689 47.362L175.798 46.908ZM174.924 47.782L175.378 48.673L174.924 47.782ZM177.108 40.218L176.654 39.327L177.108 40.218ZM176.234 41.092L175.343 40.638L176.234 41.092ZM183.782 38.908L182.891 38.454L183.782 38.908ZM182.908 39.782L182.454 38.891L182.908 39.782ZM182.908 8.21799L182.454 9.10899L182.908 8.21799ZM183.782 9.09202L182.891 9.54601L183.782 9.09202ZM176.234 6.90798L175.343 7.36197L176.234 6.90798ZM177.108 7.78201L176.654 8.67302L177.108 7.78201ZM174.924 0.217987L175.378 -0.67302L174.924 0.217987ZM175.798 1.09202L174.907 1.54601L175.798 1.09202ZM8.23361 1.09202L7.34261 0.638028L8.23361 1.09202ZM9.10764 0.217987L8.65365 -0.67302L9.10764 0.217987ZM6.92361 7.78201L6.46962 6.89101L6.92361 7.78201ZM7.79764 6.90798L6.90663 6.45399L7.79764 6.90798ZM0.217987 38.908L-0.67302 39.362L0.217987 38.908ZM1.09202 39.782L1.54601 38.891L1.09202 39.782ZM1.09202 8.21799L0.638028 7.32698L1.09202 8.21799ZM-1 11.2V36.8H1V11.2H-1ZM4.81562 7H3.2V9H4.81562V7ZM7.01562 3.2V4.8H9.01562V3.2H7.01562ZM172.816 -1H11.2156V1H172.816V-1ZM177.016 4.8V3.2H175.016V4.8H177.016ZM180.8 7H179.216V9H180.8V7ZM185 36.8V11.2H183V36.8H185ZM179.216 41H180.8V39H179.216V41ZM177.016 44.8V43.2H175.016V44.8H177.016ZM11.2156 49H172.816V47H11.2156V49ZM7.01562 43.2V44.8H9.01562V43.2H7.01562ZM3.2 41H4.81563V39H3.2V41ZM9.01562 43.2C9.01562 42.6564 9.0164 42.1886 8.98506 41.805C8.95275 41.4096 8.88144 41.0164 8.68864 40.638L6.90663 41.546C6.93182 41.5955 6.9695 41.6962 6.9917 41.9678C7.01485 42.2512 7.01562 42.6234 7.01562 43.2H9.01562ZM4.81563 41C5.39218 41 5.76445 41.0008 6.04779 41.0239C6.31945 41.0461 6.42017 41.0838 6.46962 41.109L7.3776 39.327C6.99922 39.1342 6.606 39.0629 6.21065 39.0306C5.82698 38.9992 5.35918 39 4.81563 39V41ZM8.68864 40.638C8.40102 40.0735 7.94208 39.6146 7.3776 39.327L6.46962 41.109C6.65778 41.2049 6.81076 41.3578 6.90663 41.546L8.68864 40.638ZM11.2156 47C10.6391 47 10.2668 46.9992 9.98346 46.9761C9.7118 46.9539 9.61108 46.9162 9.56163 46.891L8.65365 48.673C9.03203 48.8658 9.42525 48.9371 9.8206 48.9694C10.2043 49.0008 10.6721 49 11.2156 49V47ZM7.01562 44.8C7.01562 45.3436 7.01485 45.8114 7.04619 46.195C7.0785 46.5904 7.14981 46.9836 7.34261 47.362L9.12462 46.454C9.09943 46.4045 9.06175 46.3038 9.03955 46.0322C9.0164 45.7488 9.01562 45.3766 9.01562 44.8H7.01562ZM9.56163 46.891C9.37347 46.7951 9.22049 46.6422 9.12462 46.454L7.34261 47.362C7.63023 47.9265 8.08917 48.3854 8.65365 48.673L9.56163 46.891ZM175.016 44.8C175.016 45.3766 175.015 45.7488 174.992 46.0322C174.969 46.3038 174.932 46.4045 174.907 46.454L176.689 47.362C176.881 46.9836 176.953 46.5904 176.985 46.195C177.016 45.8114 177.016 45.3436 177.016 44.8H175.016ZM172.816 49C173.359 49 173.827 49.0008 174.211 48.9694C174.606 48.9371 174.999 48.8658 175.378 48.673L174.47 46.891C174.42 46.9162 174.319 46.9539 174.048 46.9761C173.764 46.9992 173.392 47 172.816 47V49ZM174.907 46.454C174.811 46.6422 174.658 46.7951 174.47 46.891L175.378 48.673C175.942 48.3854 176.401 47.9265 176.689 47.362L174.907 46.454ZM179.216 39C178.672 39 178.204 38.9992 177.821 39.0306C177.425 39.0629 177.032 39.1342 176.654 39.327L177.562 41.109C177.611 41.0838 177.712 41.0461 177.983 41.0239C178.267 41.0008 178.639 41 179.216 41V39ZM177.016 43.2C177.016 42.6234 177.016 42.2512 177.04 41.9678C177.062 41.6962 177.099 41.5955 177.125 41.546L175.343 40.638C175.15 41.0164 175.078 41.4096 175.046 41.805C175.015 42.1886 175.016 42.6564 175.016 43.2H177.016ZM176.654 39.327C176.089 39.6146 175.63 40.0735 175.343 40.638L177.125 41.546C177.22 41.3578 177.373 41.2049 177.562 41.109L176.654 39.327ZM183 36.8C183 37.3766 182.999 37.7488 182.976 38.0322C182.954 38.3038 182.916 38.4045 182.891 38.454L184.673 39.362C184.866 38.9836 184.937 38.5904 184.969 38.195C185.001 37.8114 185 37.3436 185 36.8H183ZM180.8 41C181.344 41 181.811 41.0008 182.195 40.9694C182.59 40.9371 182.984 40.8658 183.362 40.673L182.454 38.891C182.405 38.9162 182.304 38.9539 182.032 38.9761C181.749 38.9992 181.377 39 180.8 39V41ZM182.891 38.454C182.795 38.6422 182.642 38.7951 182.454 38.891L183.362 40.673C183.926 40.3854 184.385 39.9265 184.673 39.362L182.891 38.454ZM180.8 9C181.377 9 181.749 9.00078 182.032 9.02393C182.304 9.04612 182.405 9.0838 182.454 9.10899L183.362 7.32698C182.984 7.13419 182.59 7.06287 182.195 7.03057C181.811 6.99922 181.344 7 180.8 7V9ZM185 11.2C185 10.6564 185.001 10.1886 184.969 9.80497C184.937 9.40963 184.866 9.01641 184.673 8.63803L182.891 9.54601C182.916 9.59545 182.954 9.69617 182.976 9.96784C182.999 10.2512 183 10.6234 183 11.2H185ZM182.454 9.10899C182.642 9.20487 182.795 9.35785 182.891 9.54601L184.673 8.63803C184.385 8.07354 183.926 7.6146 183.362 7.32698L182.454 9.10899ZM175.016 4.8C175.016 5.34355 175.015 5.81136 175.046 6.19503C175.078 6.59037 175.15 6.98359 175.343 7.36197L177.125 6.45399C177.099 6.40455 177.062 6.30383 177.04 6.03216C177.016 5.74883 177.016 5.37655 177.016 4.8H175.016ZM179.216 7C178.639 7 178.267 6.99922 177.983 6.97607C177.712 6.95388 177.611 6.9162 177.562 6.89101L176.654 8.67302C177.032 8.86581 177.425 8.93713 177.821 8.96943C178.204 9.00078 178.672 9 179.216 9V7ZM175.343 7.36197C175.63 7.92646 176.089 8.3854 176.654 8.67302L177.562 6.89101C177.373 6.79513 177.22 6.64215 177.125 6.45399L175.343 7.36197ZM172.816 1C173.392 1 173.764 1.00078 174.048 1.02393C174.319 1.04612 174.42 1.0838 174.47 1.10899L175.378 -0.67302C174.999 -0.865814 174.606 -0.93713 174.211 -0.969431C173.827 -1.00078 173.359 -1 172.816 -1V1ZM177.016 3.2C177.016 2.65645 177.016 2.18864 176.985 1.80497C176.953 1.40963 176.881 1.01641 176.689 0.638028L174.907 1.54601C174.932 1.59545 174.969 1.69617 174.992 1.96784C175.015 2.25117 175.016 2.62345 175.016 3.2H177.016ZM174.47 1.10899C174.658 1.20487 174.811 1.35785 174.907 1.54601L176.689 0.638028C176.401 0.0735422 175.942 -0.385399 175.378 -0.67302L174.47 1.10899ZM9.01562 3.2C9.01562 2.62345 9.0164 2.25117 9.03955 1.96784C9.06175 1.69617 9.09943 1.59545 9.12462 1.54601L7.34261 0.638028C7.14981 1.01641 7.0785 1.40963 7.04619 1.80497C7.01485 2.18864 7.01562 2.65645 7.01562 3.2H9.01562ZM11.2156 -1C10.6721 -1 10.2043 -1.00078 9.8206 -0.969431C9.42525 -0.93713 9.03203 -0.865814 8.65365 -0.67302L9.56163 1.10899C9.61108 1.0838 9.7118 1.04612 9.98346 1.02393C10.2668 1.00078 10.6391 1 11.2156 1V-1ZM9.12462 1.54601C9.22049 1.35785 9.37347 1.20487 9.56163 1.10899L8.65365 -0.67302C8.08917 -0.385399 7.63023 0.0735422 7.34261 0.638028L9.12462 1.54601ZM4.81562 9C5.35918 9 5.82698 9.00078 6.21065 8.96943C6.606 8.93713 6.99922 8.86581 7.3776 8.67302L6.46962 6.89101C6.42017 6.9162 6.31945 6.95388 6.04779 6.97607C5.76445 6.99922 5.39218 7 4.81562 7V9ZM7.01562 4.8C7.01562 5.37655 7.01485 5.74883 6.9917 6.03216C6.9695 6.30383 6.93182 6.40455 6.90663 6.45399L8.68864 7.36197C8.88144 6.98359 8.95275 6.59037 8.98506 6.19503C9.0164 5.81136 9.01562 5.34355 9.01562 4.8H7.01562ZM7.3776 8.67302C7.94208 8.3854 8.40102 7.92646 8.68864 7.36197L6.90663 6.45399C6.81076 6.64215 6.65778 6.79513 6.46962 6.89101L7.3776 8.67302ZM-1 36.8C-1 37.3436 -1.00078 37.8114 -0.969431 38.195C-0.93713 38.5904 -0.865814 38.9836 -0.67302 39.362L1.10899 38.454C1.0838 38.4045 1.04612 38.3038 1.02393 38.0322C1.00078 37.7488 1 37.3766 1 36.8H-1ZM3.2 39C2.62345 39 2.25117 38.9992 1.96784 38.9761C1.69617 38.9539 1.59545 38.9162 1.54601 38.891L0.638028 40.673C1.01641 40.8658 1.40963 40.9371 1.80497 40.9694C2.18864 41.0008 2.65645 41 3.2 41V39ZM-0.67302 39.362C-0.385399 39.9265 0.0735422 40.3854 0.638028 40.673L1.54601 38.891C1.35785 38.7951 1.20487 38.6422 1.10899 38.454L-0.67302 39.362ZM1 11.2C1 10.6234 1.00078 10.2512 1.02393 9.96784C1.04612 9.69617 1.0838 9.59545 1.10899 9.54601L-0.67302 8.63803C-0.865814 9.01641 -0.93713 9.40963 -0.969431 9.80497C-1.00078 10.1886 -1 10.6564 -1 11.2H1ZM3.2 7C2.65645 7 2.18864 6.99922 1.80497 7.03057C1.40963 7.06287 1.01641 7.13419 0.638028 7.32698L1.54601 9.10899C1.59545 9.0838 1.69617 9.04612 1.96784 9.02393C2.25117 9.00078 2.62345 9 3.2 9V7ZM1.10899 9.54601C1.20487 9.35785 1.35785 9.20487 1.54601 9.10899L0.638028 7.32698C0.0735422 7.6146 -0.385399 8.07354 -0.67302 8.63803L1.10899 9.54601Z" fill="#E6D6C2" mask="url(#path-1-inside-1_708_940)"/>
</svg>
